M48
; DRILL file {KiCad (5.1.9)-1} date 10/03/21 22:41:12
; FORMAT={-:-/ absolute / metric / decimal}
; #@! TF.CreationDate,2021-10-03T22:41:12+01:00
; #@! TF.GenerationSoftware,Kicad,Pcbnew,(5.1.9)-1
FMAT,2
METRIC
T1C0.800
T2C1.000
T3C1.520
T4C3.200
%
G90
G05
T1
X94.996Y-110.109
X97.496Y-110.109
X101.32Y-102.91
X101.35Y-100.26
X103.86Y-102.91
X103.89Y-100.26
X106.212Y-60.96
X106.4Y-102.91
X106.43Y-100.26
X106.807Y-110.363
X108.712Y-60.96
X108.94Y-102.91
X108.97Y-100.26
X109.307Y-110.363
X111.48Y-102.91
X111.51Y-100.26
X114.02Y-102.91
X114.05Y-100.26
X114.24Y-69.63
X114.27Y-66.98
X116.56Y-102.91
X116.59Y-100.26
X116.78Y-69.63
X116.81Y-66.98
X116.88Y-60.96
X117.602Y-110.363
X119.1Y-102.91
X119.13Y-100.26
X119.32Y-69.63
X119.35Y-66.98
X119.38Y-60.96
X120.102Y-110.363
X121.64Y-102.91
X121.67Y-100.26
X121.86Y-69.63
X121.89Y-66.98
X124.18Y-102.91
X124.21Y-100.26
X124.4Y-69.63
X124.43Y-66.98
X126.72Y-102.91
X126.75Y-100.26
X126.94Y-69.63
X126.97Y-66.98
X127.04Y-60.96
X128.524Y-110.363
X129.26Y-102.91
X129.29Y-100.26
X129.48Y-69.63
X129.51Y-66.98
X129.54Y-60.96
X131.024Y-110.363
X131.8Y-102.91
X131.83Y-100.26
X132.02Y-69.63
X132.05Y-66.98
X134.34Y-102.91
X134.37Y-100.26
X134.56Y-69.63
X134.59Y-66.98
X136.88Y-102.91
X136.91Y-100.26
X137.1Y-69.63
X137.13Y-66.98
X138.47Y-60.96
X139.319Y-110.363
X139.42Y-102.91
X139.45Y-100.26
X139.64Y-69.63
X139.67Y-66.98
X140.97Y-60.96
X141.819Y-110.363
X141.96Y-102.91
X141.99Y-100.26
X142.18Y-69.63
X142.21Y-66.98
X144.5Y-102.91
X144.53Y-100.26
X144.72Y-69.63
X144.75Y-66.98
X146.177Y-60.833
X147.04Y-102.91
X147.07Y-100.26
X147.26Y-69.63
X147.29Y-66.98
X148.637Y-72.448
X148.637Y-74.988
X148.637Y-77.528
X148.637Y-85.148
X148.637Y-87.688
X148.637Y-90.228
X148.677Y-60.833
X149.58Y-102.91
X149.61Y-100.26
X149.8Y-69.63
X149.83Y-66.98
X149.86Y-110.109
X151.805Y-60.96
X152.12Y-102.91
X152.15Y-100.26
X152.207Y-72.448
X152.207Y-74.988
X152.207Y-77.528
X152.207Y-85.148
X152.207Y-87.688
X152.207Y-90.228
X152.34Y-69.63
X152.36Y-110.109
X152.37Y-66.98
X154.305Y-60.96
X157.607Y-60.96
X160.107Y-60.96
X160.782Y-110.109
X163.282Y-110.109
X163.87Y-60.96
X166.37Y-60.96
T2
X158.242Y-66.929
X158.242Y-69.469
X158.242Y-72.009
X158.242Y-77.47
X158.242Y-80.01
X158.242Y-82.55
X158.242Y-87.503
X158.242Y-90.043
X158.242Y-92.583
X158.242Y-97.917
X158.242Y-100.457
X158.242Y-102.997
X164.338Y-87.503
X164.338Y-90.043
X164.338Y-92.583
X164.465Y-77.343
X164.465Y-79.883
X164.465Y-82.423
X164.465Y-98.044
X164.465Y-100.584
X164.465Y-103.124
X164.592Y-66.929
X164.592Y-69.469
X164.592Y-72.009
X170.18Y-67.056
X170.18Y-69.596
X170.18Y-72.136
X170.434Y-77.216
X170.434Y-79.756
X170.434Y-82.296
X170.434Y-87.503
X170.434Y-90.043
X170.434Y-92.583
X170.561Y-97.917
X170.561Y-100.457
X170.561Y-102.997
T3
X93.726Y-116.459
X94.107Y-54.737
X98.806Y-116.459
X99.187Y-54.737
X104.657Y-116.463
X104.902Y-54.737
X109.737Y-116.463
X109.982Y-54.737
X115.572Y-116.463
X115.824Y-54.737
X120.652Y-116.463
X120.904Y-54.737
X126.614Y-116.463
X126.619Y-54.737
X131.694Y-116.463
X131.699Y-54.737
X137.414Y-54.737
X137.649Y-116.463
X142.494Y-54.737
X142.729Y-116.463
X148.463Y-54.737
X148.59Y-116.459
X153.543Y-54.737
X153.67Y-116.459
X159.397Y-54.733
X159.512Y-116.459
X164.477Y-54.733
X164.592Y-116.459
T4
X95.25Y-67.31
X95.25Y-102.87
X172.72Y-54.61
X172.72Y-116.84
T0
M30
