%TF.GenerationSoftware,KiCad,Pcbnew,(5.1.9)-1*%
%TF.CreationDate,2021-10-03T22:41:08+01:00*%
%TF.ProjectId,cessna-panel-pcb,63657373-6e61-42d7-9061-6e656c2d7063,rev?*%
%TF.SameCoordinates,Original*%
%TF.FileFunction,Legend,Bot*%
%TF.FilePolarity,Positive*%
%FSLAX46Y46*%
G04 Gerber Fmt 4.6, Leading zero omitted, Abs format (unit mm)*
G04 Created by KiCad (PCBNEW (5.1.9)-1) date 2021-10-03 22:41:08*
%MOMM*%
%LPD*%
G01*
G04 APERTURE LIST*
%ADD10C,0.300000*%
%ADD11C,0.150000*%
%ADD12C,0.200000*%
G04 APERTURE END LIST*
D10*
X144713571Y-80744142D02*
X144499285Y-80815571D01*
X144142142Y-80815571D01*
X143999285Y-80744142D01*
X143927857Y-80672714D01*
X143856428Y-80529857D01*
X143856428Y-80387000D01*
X143927857Y-80244142D01*
X143999285Y-80172714D01*
X144142142Y-80101285D01*
X144427857Y-80029857D01*
X144570714Y-79958428D01*
X144642142Y-79887000D01*
X144713571Y-79744142D01*
X144713571Y-79601285D01*
X144642142Y-79458428D01*
X144570714Y-79387000D01*
X144427857Y-79315571D01*
X144070714Y-79315571D01*
X143856428Y-79387000D01*
X143356428Y-79815571D02*
X143070714Y-80815571D01*
X142785000Y-80101285D01*
X142499285Y-80815571D01*
X142213571Y-79815571D01*
X141642142Y-80815571D02*
X141642142Y-79815571D01*
X141642142Y-79315571D02*
X141713571Y-79387000D01*
X141642142Y-79458428D01*
X141570714Y-79387000D01*
X141642142Y-79315571D01*
X141642142Y-79458428D01*
X141142142Y-79815571D02*
X140570714Y-79815571D01*
X140927857Y-79315571D02*
X140927857Y-80601285D01*
X140856428Y-80744142D01*
X140713571Y-80815571D01*
X140570714Y-80815571D01*
X139427857Y-80744142D02*
X139570714Y-80815571D01*
X139856428Y-80815571D01*
X139999285Y-80744142D01*
X140070714Y-80672714D01*
X140142142Y-80529857D01*
X140142142Y-80101285D01*
X140070714Y-79958428D01*
X139999285Y-79887000D01*
X139856428Y-79815571D01*
X139570714Y-79815571D01*
X139427857Y-79887000D01*
X138785000Y-80815571D02*
X138785000Y-79315571D01*
X138142142Y-80815571D02*
X138142142Y-80029857D01*
X138213571Y-79887000D01*
X138356428Y-79815571D01*
X138570714Y-79815571D01*
X138713571Y-79887000D01*
X138785000Y-79958428D01*
X136285000Y-80815571D02*
X136285000Y-79315571D01*
X135713571Y-79315571D01*
X135570714Y-79387000D01*
X135499285Y-79458428D01*
X135427857Y-79601285D01*
X135427857Y-79815571D01*
X135499285Y-79958428D01*
X135570714Y-80029857D01*
X135713571Y-80101285D01*
X136285000Y-80101285D01*
X134142142Y-80815571D02*
X134142142Y-80029857D01*
X134213571Y-79887000D01*
X134356428Y-79815571D01*
X134642142Y-79815571D01*
X134785000Y-79887000D01*
X134142142Y-80744142D02*
X134285000Y-80815571D01*
X134642142Y-80815571D01*
X134785000Y-80744142D01*
X134856428Y-80601285D01*
X134856428Y-80458428D01*
X134785000Y-80315571D01*
X134642142Y-80244142D01*
X134285000Y-80244142D01*
X134142142Y-80172714D01*
X133427857Y-79815571D02*
X133427857Y-80815571D01*
X133427857Y-79958428D02*
X133356428Y-79887000D01*
X133213571Y-79815571D01*
X132999285Y-79815571D01*
X132856428Y-79887000D01*
X132785000Y-80029857D01*
X132785000Y-80815571D01*
X131499285Y-80744142D02*
X131642142Y-80815571D01*
X131927857Y-80815571D01*
X132070714Y-80744142D01*
X132142142Y-80601285D01*
X132142142Y-80029857D01*
X132070714Y-79887000D01*
X131927857Y-79815571D01*
X131642142Y-79815571D01*
X131499285Y-79887000D01*
X131427857Y-80029857D01*
X131427857Y-80172714D01*
X132142142Y-80315571D01*
X130570714Y-80815571D02*
X130713571Y-80744142D01*
X130785000Y-80601285D01*
X130785000Y-79315571D01*
X127642142Y-80815571D02*
X127713571Y-80815571D01*
X127856428Y-80744142D01*
X128070714Y-80529857D01*
X128427857Y-80101285D01*
X128570714Y-79887000D01*
X128642142Y-79672714D01*
X128642142Y-79529857D01*
X128570714Y-79387000D01*
X128427857Y-79315571D01*
X128356428Y-79315571D01*
X128213571Y-79387000D01*
X128142142Y-79529857D01*
X128142142Y-79601285D01*
X128213571Y-79744142D01*
X128285000Y-79815571D01*
X128713571Y-80101285D01*
X128785000Y-80172714D01*
X128856428Y-80315571D01*
X128856428Y-80529857D01*
X128785000Y-80672714D01*
X128713571Y-80744142D01*
X128570714Y-80815571D01*
X128356428Y-80815571D01*
X128213571Y-80744142D01*
X128142142Y-80672714D01*
X127927857Y-80387000D01*
X127856428Y-80172714D01*
X127856428Y-80029857D01*
X125856428Y-80815571D02*
X125856428Y-79315571D01*
X125285000Y-79315571D01*
X125142142Y-79387000D01*
X125070714Y-79458428D01*
X124999285Y-79601285D01*
X124999285Y-79815571D01*
X125070714Y-79958428D01*
X125142142Y-80029857D01*
X125285000Y-80101285D01*
X125856428Y-80101285D01*
X124499285Y-79315571D02*
X124142142Y-80815571D01*
X123856428Y-79744142D01*
X123570714Y-80815571D01*
X123213571Y-79315571D01*
X122642142Y-80815571D02*
X122642142Y-79315571D01*
X122142142Y-80387000D01*
X121642142Y-79315571D01*
X121642142Y-80815571D01*
X119999285Y-79815571D02*
X119427857Y-79815571D01*
X119785000Y-80815571D02*
X119785000Y-79529857D01*
X119713571Y-79387000D01*
X119570714Y-79315571D01*
X119427857Y-79315571D01*
X118713571Y-80815571D02*
X118856428Y-80744142D01*
X118927857Y-80672714D01*
X118999285Y-80529857D01*
X118999285Y-80101285D01*
X118927857Y-79958428D01*
X118856428Y-79887000D01*
X118713571Y-79815571D01*
X118499285Y-79815571D01*
X118356428Y-79887000D01*
X118285000Y-79958428D01*
X118213571Y-80101285D01*
X118213571Y-80529857D01*
X118285000Y-80672714D01*
X118356428Y-80744142D01*
X118499285Y-80815571D01*
X118713571Y-80815571D01*
X117570714Y-80815571D02*
X117570714Y-79815571D01*
X117570714Y-80101285D02*
X117499285Y-79958428D01*
X117427857Y-79887000D01*
X117285000Y-79815571D01*
X117142142Y-79815571D01*
X114999285Y-80029857D02*
X115499285Y-80029857D01*
X115499285Y-80815571D02*
X115499285Y-79315571D01*
X114785000Y-79315571D01*
X113999285Y-80815571D02*
X114142142Y-80744142D01*
X114213571Y-80601285D01*
X114213571Y-79315571D01*
X113427857Y-80815571D02*
X113427857Y-79815571D01*
X113427857Y-79315571D02*
X113499285Y-79387000D01*
X113427857Y-79458428D01*
X113356428Y-79387000D01*
X113427857Y-79315571D01*
X113427857Y-79458428D01*
X112070714Y-79815571D02*
X112070714Y-81029857D01*
X112142142Y-81172714D01*
X112213571Y-81244142D01*
X112356428Y-81315571D01*
X112570714Y-81315571D01*
X112713571Y-81244142D01*
X112070714Y-80744142D02*
X112213571Y-80815571D01*
X112499285Y-80815571D01*
X112642142Y-80744142D01*
X112713571Y-80672714D01*
X112785000Y-80529857D01*
X112785000Y-80101285D01*
X112713571Y-79958428D01*
X112642142Y-79887000D01*
X112499285Y-79815571D01*
X112213571Y-79815571D01*
X112070714Y-79887000D01*
X111356428Y-80815571D02*
X111356428Y-79315571D01*
X110713571Y-80815571D02*
X110713571Y-80029857D01*
X110785000Y-79887000D01*
X110927857Y-79815571D01*
X111142142Y-79815571D01*
X111285000Y-79887000D01*
X111356428Y-79958428D01*
X110213571Y-79815571D02*
X109642142Y-79815571D01*
X109999285Y-79315571D02*
X109999285Y-80601285D01*
X109927857Y-80744142D01*
X109785000Y-80815571D01*
X109642142Y-80815571D01*
X108070714Y-80744142D02*
X107856428Y-80815571D01*
X107499285Y-80815571D01*
X107356428Y-80744142D01*
X107285000Y-80672714D01*
X107213571Y-80529857D01*
X107213571Y-80387000D01*
X107285000Y-80244142D01*
X107356428Y-80172714D01*
X107499285Y-80101285D01*
X107785000Y-80029857D01*
X107927857Y-79958428D01*
X107999285Y-79887000D01*
X108070714Y-79744142D01*
X108070714Y-79601285D01*
X107999285Y-79458428D01*
X107927857Y-79387000D01*
X107785000Y-79315571D01*
X107427857Y-79315571D01*
X107213571Y-79387000D01*
X106570714Y-80815571D02*
X106570714Y-79815571D01*
X106570714Y-79315571D02*
X106642142Y-79387000D01*
X106570714Y-79458428D01*
X106499285Y-79387000D01*
X106570714Y-79315571D01*
X106570714Y-79458428D01*
X105856428Y-80815571D02*
X105856428Y-79815571D01*
X105856428Y-79958428D02*
X105785000Y-79887000D01*
X105642142Y-79815571D01*
X105427857Y-79815571D01*
X105285000Y-79887000D01*
X105213571Y-80029857D01*
X105213571Y-80815571D01*
X105213571Y-80029857D02*
X105142142Y-79887000D01*
X104999285Y-79815571D01*
X104785000Y-79815571D01*
X104642142Y-79887000D01*
X104570714Y-80029857D01*
X104570714Y-80815571D01*
X103213571Y-79815571D02*
X103213571Y-80815571D01*
X103856428Y-79815571D02*
X103856428Y-80601285D01*
X103785000Y-80744142D01*
X103642142Y-80815571D01*
X103427857Y-80815571D01*
X103285000Y-80744142D01*
X103213571Y-80672714D01*
X102285000Y-80815571D02*
X102427857Y-80744142D01*
X102499285Y-80601285D01*
X102499285Y-79315571D01*
X101070714Y-80815571D02*
X101070714Y-80029857D01*
X101142142Y-79887000D01*
X101285000Y-79815571D01*
X101570714Y-79815571D01*
X101713571Y-79887000D01*
X101070714Y-80744142D02*
X101213571Y-80815571D01*
X101570714Y-80815571D01*
X101713571Y-80744142D01*
X101785000Y-80601285D01*
X101785000Y-80458428D01*
X101713571Y-80315571D01*
X101570714Y-80244142D01*
X101213571Y-80244142D01*
X101070714Y-80172714D01*
X100570714Y-79815571D02*
X99999285Y-79815571D01*
X100356428Y-79315571D02*
X100356428Y-80601285D01*
X100285000Y-80744142D01*
X100142142Y-80815571D01*
X99999285Y-80815571D01*
X99285000Y-80815571D02*
X99427857Y-80744142D01*
X99499285Y-80672714D01*
X99570714Y-80529857D01*
X99570714Y-80101285D01*
X99499285Y-79958428D01*
X99427857Y-79887000D01*
X99285000Y-79815571D01*
X99070714Y-79815571D01*
X98927857Y-79887000D01*
X98856428Y-79958428D01*
X98785000Y-80101285D01*
X98785000Y-80529857D01*
X98856428Y-80672714D01*
X98927857Y-80744142D01*
X99070714Y-80815571D01*
X99285000Y-80815571D01*
X98142142Y-80815571D02*
X98142142Y-79815571D01*
X98142142Y-80101285D02*
X98070714Y-79958428D01*
X97999285Y-79887000D01*
X97856428Y-79815571D01*
X97713571Y-79815571D01*
D11*
X144151238Y-84907380D02*
X144151238Y-84383571D01*
X144198857Y-84288333D01*
X144294095Y-84240714D01*
X144484571Y-84240714D01*
X144579809Y-84288333D01*
X144151238Y-84859761D02*
X144246476Y-84907380D01*
X144484571Y-84907380D01*
X144579809Y-84859761D01*
X144627428Y-84764523D01*
X144627428Y-84669285D01*
X144579809Y-84574047D01*
X144484571Y-84526428D01*
X144246476Y-84526428D01*
X144151238Y-84478809D01*
X143246476Y-84240714D02*
X143246476Y-84907380D01*
X143675047Y-84240714D02*
X143675047Y-84764523D01*
X143627428Y-84859761D01*
X143532190Y-84907380D01*
X143389333Y-84907380D01*
X143294095Y-84859761D01*
X143246476Y-84812142D01*
X142341714Y-84240714D02*
X142341714Y-85050238D01*
X142389333Y-85145476D01*
X142436952Y-85193095D01*
X142532190Y-85240714D01*
X142675047Y-85240714D01*
X142770285Y-85193095D01*
X142341714Y-84859761D02*
X142436952Y-84907380D01*
X142627428Y-84907380D01*
X142722666Y-84859761D01*
X142770285Y-84812142D01*
X142817904Y-84716904D01*
X142817904Y-84431190D01*
X142770285Y-84335952D01*
X142722666Y-84288333D01*
X142627428Y-84240714D01*
X142436952Y-84240714D01*
X142341714Y-84288333D01*
X141436952Y-84240714D02*
X141436952Y-84907380D01*
X141865523Y-84240714D02*
X141865523Y-84764523D01*
X141817904Y-84859761D01*
X141722666Y-84907380D01*
X141579809Y-84907380D01*
X141484571Y-84859761D01*
X141436952Y-84812142D01*
X141008380Y-84859761D02*
X140913142Y-84907380D01*
X140722666Y-84907380D01*
X140627428Y-84859761D01*
X140579809Y-84764523D01*
X140579809Y-84716904D01*
X140627428Y-84621666D01*
X140722666Y-84574047D01*
X140865523Y-84574047D01*
X140960761Y-84526428D01*
X141008380Y-84431190D01*
X141008380Y-84383571D01*
X140960761Y-84288333D01*
X140865523Y-84240714D01*
X140722666Y-84240714D01*
X140627428Y-84288333D01*
X140294095Y-84240714D02*
X139913142Y-84240714D01*
X140151238Y-83907380D02*
X140151238Y-84764523D01*
X140103619Y-84859761D01*
X140008380Y-84907380D01*
X139913142Y-84907380D01*
X139436952Y-84907380D02*
X139532190Y-84859761D01*
X139579809Y-84812142D01*
X139627428Y-84716904D01*
X139627428Y-84431190D01*
X139579809Y-84335952D01*
X139532190Y-84288333D01*
X139436952Y-84240714D01*
X139294095Y-84240714D01*
X139198857Y-84288333D01*
X139151238Y-84335952D01*
X139103619Y-84431190D01*
X139103619Y-84716904D01*
X139151238Y-84812142D01*
X139198857Y-84859761D01*
X139294095Y-84907380D01*
X139436952Y-84907380D01*
X138722666Y-84859761D02*
X138627428Y-84907380D01*
X138436952Y-84907380D01*
X138341714Y-84859761D01*
X138294095Y-84764523D01*
X138294095Y-84716904D01*
X138341714Y-84621666D01*
X138436952Y-84574047D01*
X138579809Y-84574047D01*
X138675047Y-84526428D01*
X138722666Y-84431190D01*
X138722666Y-84383571D01*
X138675047Y-84288333D01*
X138579809Y-84240714D01*
X138436952Y-84240714D01*
X138341714Y-84288333D01*
X137436952Y-84907380D02*
X137436952Y-84383571D01*
X137484571Y-84288333D01*
X137579809Y-84240714D01*
X137770285Y-84240714D01*
X137865523Y-84288333D01*
X137436952Y-84859761D02*
X137532190Y-84907380D01*
X137770285Y-84907380D01*
X137865523Y-84859761D01*
X137913142Y-84764523D01*
X137913142Y-84669285D01*
X137865523Y-84574047D01*
X137770285Y-84526428D01*
X137532190Y-84526428D01*
X137436952Y-84478809D01*
X136960761Y-84907380D02*
X136960761Y-84240714D01*
X136960761Y-84335952D02*
X136913142Y-84288333D01*
X136817904Y-84240714D01*
X136675047Y-84240714D01*
X136579809Y-84288333D01*
X136532190Y-84383571D01*
X136532190Y-84907380D01*
X136532190Y-84383571D02*
X136484571Y-84288333D01*
X136389333Y-84240714D01*
X136246476Y-84240714D01*
X136151238Y-84288333D01*
X136103619Y-84383571D01*
X136103619Y-84907380D01*
X135198857Y-84240714D02*
X135198857Y-84907380D01*
X135627428Y-84240714D02*
X135627428Y-84764523D01*
X135579809Y-84859761D01*
X135484571Y-84907380D01*
X135341714Y-84907380D01*
X135246476Y-84859761D01*
X135198857Y-84812142D01*
X134341714Y-84859761D02*
X134436952Y-84907380D01*
X134627428Y-84907380D01*
X134722666Y-84859761D01*
X134770285Y-84764523D01*
X134770285Y-84383571D01*
X134722666Y-84288333D01*
X134627428Y-84240714D01*
X134436952Y-84240714D01*
X134341714Y-84288333D01*
X134294095Y-84383571D01*
X134294095Y-84478809D01*
X134770285Y-84574047D01*
X133722666Y-84907380D02*
X133817904Y-84859761D01*
X133865523Y-84764523D01*
X133865523Y-83907380D01*
X133341714Y-84907380D02*
X133341714Y-83907380D01*
X132913142Y-84907380D02*
X132913142Y-84383571D01*
X132960761Y-84288333D01*
X133056000Y-84240714D01*
X133198857Y-84240714D01*
X133294095Y-84288333D01*
X133341714Y-84335952D01*
X132008380Y-84907380D02*
X132008380Y-83907380D01*
X132008380Y-84859761D02*
X132103619Y-84907380D01*
X132294095Y-84907380D01*
X132389333Y-84859761D01*
X132436952Y-84812142D01*
X132484571Y-84716904D01*
X132484571Y-84431190D01*
X132436952Y-84335952D01*
X132389333Y-84288333D01*
X132294095Y-84240714D01*
X132103619Y-84240714D01*
X132008380Y-84288333D01*
X131151238Y-84859761D02*
X131246476Y-84907380D01*
X131436952Y-84907380D01*
X131532190Y-84859761D01*
X131579809Y-84764523D01*
X131579809Y-84383571D01*
X131532190Y-84288333D01*
X131436952Y-84240714D01*
X131246476Y-84240714D01*
X131151238Y-84288333D01*
X131103619Y-84383571D01*
X131103619Y-84478809D01*
X131579809Y-84574047D01*
X130770285Y-84240714D02*
X130246476Y-84240714D01*
X130770285Y-84907380D01*
X130246476Y-84907380D01*
X129865523Y-84907380D02*
X129865523Y-84240714D01*
X129865523Y-84335952D02*
X129817904Y-84288333D01*
X129722666Y-84240714D01*
X129579809Y-84240714D01*
X129484571Y-84288333D01*
X129436952Y-84383571D01*
X129436952Y-84907380D01*
X129436952Y-84383571D02*
X129389333Y-84288333D01*
X129294095Y-84240714D01*
X129151238Y-84240714D01*
X129056000Y-84288333D01*
X129008380Y-84383571D01*
X129008380Y-84907380D01*
X128103619Y-84907380D02*
X128103619Y-84383571D01*
X128151238Y-84288333D01*
X128246476Y-84240714D01*
X128436952Y-84240714D01*
X128532190Y-84288333D01*
X128103619Y-84859761D02*
X128198857Y-84907380D01*
X128436952Y-84907380D01*
X128532190Y-84859761D01*
X128579809Y-84764523D01*
X128579809Y-84669285D01*
X128532190Y-84574047D01*
X128436952Y-84526428D01*
X128198857Y-84526428D01*
X128103619Y-84478809D01*
X127627428Y-84907380D02*
X127627428Y-84240714D01*
X127627428Y-84431190D02*
X127579809Y-84335952D01*
X127532190Y-84288333D01*
X127436952Y-84240714D01*
X127341714Y-84240714D01*
X127151238Y-84240714D02*
X126770285Y-84240714D01*
X127008380Y-83907380D02*
X127008380Y-84764523D01*
X126960761Y-84859761D01*
X126865523Y-84907380D01*
X126770285Y-84907380D01*
X126436952Y-84907380D02*
X126436952Y-84240714D01*
X126436952Y-83907380D02*
X126484571Y-83955000D01*
X126436952Y-84002619D01*
X126389333Y-83955000D01*
X126436952Y-83907380D01*
X126436952Y-84002619D01*
X125960761Y-84240714D02*
X125960761Y-84907380D01*
X125960761Y-84335952D02*
X125913142Y-84288333D01*
X125817904Y-84240714D01*
X125675047Y-84240714D01*
X125579809Y-84288333D01*
X125532190Y-84383571D01*
X125532190Y-84907380D01*
X124436952Y-84431190D02*
X124484571Y-84383571D01*
X124579809Y-84335952D01*
X124675047Y-84335952D01*
X124770285Y-84383571D01*
X124817904Y-84431190D01*
X124865523Y-84526428D01*
X124865523Y-84621666D01*
X124817904Y-84716904D01*
X124770285Y-84764523D01*
X124675047Y-84812142D01*
X124579809Y-84812142D01*
X124484571Y-84764523D01*
X124436952Y-84716904D01*
X124436952Y-84335952D02*
X124436952Y-84716904D01*
X124389333Y-84764523D01*
X124341714Y-84764523D01*
X124246476Y-84716904D01*
X124198857Y-84621666D01*
X124198857Y-84383571D01*
X124294095Y-84240714D01*
X124436952Y-84145476D01*
X124627428Y-84097857D01*
X124817904Y-84145476D01*
X124960761Y-84240714D01*
X125056000Y-84383571D01*
X125103619Y-84574047D01*
X125056000Y-84764523D01*
X124960761Y-84907380D01*
X124817904Y-85002619D01*
X124627428Y-85050238D01*
X124436952Y-85002619D01*
X124294095Y-84907380D01*
X123341714Y-84240714D02*
X123341714Y-85050238D01*
X123389333Y-85145476D01*
X123436952Y-85193095D01*
X123532190Y-85240714D01*
X123675047Y-85240714D01*
X123770285Y-85193095D01*
X123341714Y-84859761D02*
X123436952Y-84907380D01*
X123627428Y-84907380D01*
X123722666Y-84859761D01*
X123770285Y-84812142D01*
X123817904Y-84716904D01*
X123817904Y-84431190D01*
X123770285Y-84335952D01*
X123722666Y-84288333D01*
X123627428Y-84240714D01*
X123436952Y-84240714D01*
X123341714Y-84288333D01*
X122865523Y-84907380D02*
X122865523Y-84240714D01*
X122865523Y-84335952D02*
X122817904Y-84288333D01*
X122722666Y-84240714D01*
X122579809Y-84240714D01*
X122484571Y-84288333D01*
X122436952Y-84383571D01*
X122436952Y-84907380D01*
X122436952Y-84383571D02*
X122389333Y-84288333D01*
X122294095Y-84240714D01*
X122151238Y-84240714D01*
X122056000Y-84288333D01*
X122008380Y-84383571D01*
X122008380Y-84907380D01*
X121103619Y-84907380D02*
X121103619Y-84383571D01*
X121151238Y-84288333D01*
X121246476Y-84240714D01*
X121436952Y-84240714D01*
X121532190Y-84288333D01*
X121103619Y-84859761D02*
X121198857Y-84907380D01*
X121436952Y-84907380D01*
X121532190Y-84859761D01*
X121579809Y-84764523D01*
X121579809Y-84669285D01*
X121532190Y-84574047D01*
X121436952Y-84526428D01*
X121198857Y-84526428D01*
X121103619Y-84478809D01*
X120627428Y-84907380D02*
X120627428Y-84240714D01*
X120627428Y-83907380D02*
X120675047Y-83955000D01*
X120627428Y-84002619D01*
X120579809Y-83955000D01*
X120627428Y-83907380D01*
X120627428Y-84002619D01*
X120008380Y-84907380D02*
X120103619Y-84859761D01*
X120151238Y-84764523D01*
X120151238Y-83907380D01*
X119627428Y-84812142D02*
X119579809Y-84859761D01*
X119627428Y-84907380D01*
X119675047Y-84859761D01*
X119627428Y-84812142D01*
X119627428Y-84907380D01*
X118722666Y-84859761D02*
X118817904Y-84907380D01*
X119008380Y-84907380D01*
X119103619Y-84859761D01*
X119151238Y-84812142D01*
X119198857Y-84716904D01*
X119198857Y-84431190D01*
X119151238Y-84335952D01*
X119103619Y-84288333D01*
X119008380Y-84240714D01*
X118817904Y-84240714D01*
X118722666Y-84288333D01*
X118151238Y-84907380D02*
X118246476Y-84859761D01*
X118294095Y-84812142D01*
X118341714Y-84716904D01*
X118341714Y-84431190D01*
X118294095Y-84335952D01*
X118246476Y-84288333D01*
X118151238Y-84240714D01*
X118008380Y-84240714D01*
X117913142Y-84288333D01*
X117865523Y-84335952D01*
X117817904Y-84431190D01*
X117817904Y-84716904D01*
X117865523Y-84812142D01*
X117913142Y-84859761D01*
X118008380Y-84907380D01*
X118151238Y-84907380D01*
X117389333Y-84907380D02*
X117389333Y-84240714D01*
X117389333Y-84335952D02*
X117341714Y-84288333D01*
X117246476Y-84240714D01*
X117103619Y-84240714D01*
X117008380Y-84288333D01*
X116960761Y-84383571D01*
X116960761Y-84907380D01*
X116960761Y-84383571D02*
X116913142Y-84288333D01*
X116817904Y-84240714D01*
X116675047Y-84240714D01*
X116579809Y-84288333D01*
X116532190Y-84383571D01*
X116532190Y-84907380D01*
D12*
X144263238Y-82177000D02*
X144358476Y-82129380D01*
X144501333Y-82129380D01*
X144644190Y-82177000D01*
X144739428Y-82272238D01*
X144787047Y-82367476D01*
X144834666Y-82557952D01*
X144834666Y-82700809D01*
X144787047Y-82891285D01*
X144739428Y-82986523D01*
X144644190Y-83081761D01*
X144501333Y-83129380D01*
X144406095Y-83129380D01*
X144263238Y-83081761D01*
X144215619Y-83034142D01*
X144215619Y-82700809D01*
X144406095Y-82700809D01*
X143787047Y-83129380D02*
X143787047Y-82462714D01*
X143787047Y-82129380D02*
X143834666Y-82177000D01*
X143787047Y-82224619D01*
X143739428Y-82177000D01*
X143787047Y-82129380D01*
X143787047Y-82224619D01*
X143453714Y-82462714D02*
X143072761Y-82462714D01*
X143310857Y-82129380D02*
X143310857Y-82986523D01*
X143263238Y-83081761D01*
X143168000Y-83129380D01*
X143072761Y-83129380D01*
X142739428Y-83129380D02*
X142739428Y-82129380D01*
X142310857Y-83129380D02*
X142310857Y-82605571D01*
X142358476Y-82510333D01*
X142453714Y-82462714D01*
X142596571Y-82462714D01*
X142691809Y-82510333D01*
X142739428Y-82557952D01*
X141406095Y-82462714D02*
X141406095Y-83129380D01*
X141834666Y-82462714D02*
X141834666Y-82986523D01*
X141787047Y-83081761D01*
X141691809Y-83129380D01*
X141548952Y-83129380D01*
X141453714Y-83081761D01*
X141406095Y-83034142D01*
X140929904Y-83129380D02*
X140929904Y-82129380D01*
X140929904Y-82510333D02*
X140834666Y-82462714D01*
X140644190Y-82462714D01*
X140548952Y-82510333D01*
X140501333Y-82557952D01*
X140453714Y-82653190D01*
X140453714Y-82938904D01*
X140501333Y-83034142D01*
X140548952Y-83081761D01*
X140644190Y-83129380D01*
X140834666Y-83129380D01*
X140929904Y-83081761D01*
X140025142Y-83034142D02*
X139977523Y-83081761D01*
X140025142Y-83129380D01*
X140072761Y-83081761D01*
X140025142Y-83034142D01*
X140025142Y-83129380D01*
X140025142Y-82510333D02*
X139977523Y-82557952D01*
X140025142Y-82605571D01*
X140072761Y-82557952D01*
X140025142Y-82510333D01*
X140025142Y-82605571D01*
X138834666Y-82843666D02*
X138358476Y-82843666D01*
X138929904Y-83129380D02*
X138596571Y-82129380D01*
X138263238Y-83129380D01*
X137501333Y-82462714D02*
X137501333Y-83129380D01*
X137929904Y-82462714D02*
X137929904Y-82986523D01*
X137882285Y-83081761D01*
X137787047Y-83129380D01*
X137644190Y-83129380D01*
X137548952Y-83081761D01*
X137501333Y-83034142D01*
X136596571Y-82462714D02*
X136596571Y-83272238D01*
X136644190Y-83367476D01*
X136691809Y-83415095D01*
X136787047Y-83462714D01*
X136929904Y-83462714D01*
X137025142Y-83415095D01*
X136596571Y-83081761D02*
X136691809Y-83129380D01*
X136882285Y-83129380D01*
X136977523Y-83081761D01*
X137025142Y-83034142D01*
X137072761Y-82938904D01*
X137072761Y-82653190D01*
X137025142Y-82557952D01*
X136977523Y-82510333D01*
X136882285Y-82462714D01*
X136691809Y-82462714D01*
X136596571Y-82510333D01*
X135691809Y-82462714D02*
X135691809Y-83129380D01*
X136120380Y-82462714D02*
X136120380Y-82986523D01*
X136072761Y-83081761D01*
X135977523Y-83129380D01*
X135834666Y-83129380D01*
X135739428Y-83081761D01*
X135691809Y-83034142D01*
X135263238Y-83081761D02*
X135168000Y-83129380D01*
X134977523Y-83129380D01*
X134882285Y-83081761D01*
X134834666Y-82986523D01*
X134834666Y-82938904D01*
X134882285Y-82843666D01*
X134977523Y-82796047D01*
X135120380Y-82796047D01*
X135215619Y-82748428D01*
X135263238Y-82653190D01*
X135263238Y-82605571D01*
X135215619Y-82510333D01*
X135120380Y-82462714D01*
X134977523Y-82462714D01*
X134882285Y-82510333D01*
X134548952Y-82462714D02*
X134168000Y-82462714D01*
X134406095Y-82129380D02*
X134406095Y-82986523D01*
X134358476Y-83081761D01*
X134263238Y-83129380D01*
X134168000Y-83129380D01*
X133691809Y-83129380D02*
X133787047Y-83081761D01*
X133834666Y-83034142D01*
X133882285Y-82938904D01*
X133882285Y-82653190D01*
X133834666Y-82557952D01*
X133787047Y-82510333D01*
X133691809Y-82462714D01*
X133548952Y-82462714D01*
X133453714Y-82510333D01*
X133406095Y-82557952D01*
X133358476Y-82653190D01*
X133358476Y-82938904D01*
X133406095Y-83034142D01*
X133453714Y-83081761D01*
X133548952Y-83129380D01*
X133691809Y-83129380D01*
X132977523Y-83081761D02*
X132834666Y-83129380D01*
X132596571Y-83129380D01*
X132501333Y-83081761D01*
X132453714Y-83034142D01*
X132406095Y-82938904D01*
X132406095Y-82843666D01*
X132453714Y-82748428D01*
X132501333Y-82700809D01*
X132596571Y-82653190D01*
X132787047Y-82605571D01*
X132882285Y-82557952D01*
X132929904Y-82510333D01*
X132977523Y-82415095D01*
X132977523Y-82319857D01*
X132929904Y-82224619D01*
X132882285Y-82177000D01*
X132787047Y-82129380D01*
X132548952Y-82129380D01*
X132406095Y-82177000D01*
X131929904Y-83129380D02*
X131739428Y-83129380D01*
X131644190Y-83081761D01*
X131596571Y-83034142D01*
X131501333Y-82891285D01*
X131453714Y-82700809D01*
X131453714Y-82319857D01*
X131501333Y-82224619D01*
X131548952Y-82177000D01*
X131644190Y-82129380D01*
X131834666Y-82129380D01*
X131929904Y-82177000D01*
X131977523Y-82224619D01*
X132025142Y-82319857D01*
X132025142Y-82557952D01*
X131977523Y-82653190D01*
X131929904Y-82700809D01*
X131834666Y-82748428D01*
X131644190Y-82748428D01*
X131548952Y-82700809D01*
X131501333Y-82653190D01*
X131453714Y-82557952D01*
X131120380Y-82129380D02*
X130453714Y-82129380D01*
X130882285Y-83129380D01*
M02*
